<svg width="666" height="220" viewBox="0 0 666 220" fill="none" xmlns="http://www.w3.org/2000/svg">
<path d="M59.2446 112.904C60.6049 112.904 61.6513 113.532 62.3838 114.787C63.2209 116.043 63.6395 117.769 63.6395 119.967C63.6395 124.153 62.6454 127.396 60.6572 129.698C56.1577 135.244 51.2396 139.796 45.903 143.354C40.671 146.912 34.7065 148.691 28.0095 148.691C18.8012 148.691 11.9473 144.505 7.44783 136.134C3.05295 127.763 0.855469 116.932 0.855469 103.643C0.855469 90.877 2.47738 76.332 5.72122 60.0082C9.0697 43.6844 13.9355 29.6626 20.3185 17.9429C26.8062 6.22324 34.4972 0.363403 43.3916 0.363403C48.4143 0.363403 52.3384 2.7178 55.1637 7.4266C58.0936 12.0308 59.5585 18.6754 59.5585 27.3605C59.5585 39.8127 56.1054 54.253 49.1991 70.6815C42.2929 87.11 32.9276 103.381 21.1033 119.496C21.8358 123.786 23.0392 126.873 24.7134 128.757C26.3876 130.536 28.5851 131.425 31.3057 131.425C35.596 131.425 39.363 130.222 42.6068 127.815C45.8507 125.304 49.9839 121.066 55.0067 115.101C56.2623 113.636 57.675 112.904 59.2446 112.904ZM39.9385 15.9024C37.5318 15.9024 34.8112 20.245 31.7766 28.9301C28.7421 37.6152 26.0737 48.3932 23.7716 61.2639C21.4695 74.1346 20.2139 86.4821 20.0046 98.3064C27.434 86.0636 33.3462 73.8207 37.7411 61.5778C42.136 49.2303 44.3334 37.9815 44.3334 27.8314C44.3334 19.8788 42.8685 15.9024 39.9385 15.9024Z" fill="#3395FF"/>
<path d="M71.5145 64.4031C67.1196 64.4031 63.8234 63.409 61.626 61.4209C59.4285 59.3281 58.3298 56.4505 58.3298 52.7881C58.3298 49.1257 59.7425 46.0911 62.5678 43.6844C65.4977 41.173 69.1078 39.9174 73.398 39.9174C77.2697 39.9174 80.4089 40.8591 82.8156 42.7426C85.2223 44.6262 86.4257 47.2945 86.4257 50.7476C86.4257 54.9332 85.0653 58.2817 82.3447 60.793C79.6241 63.1998 76.014 64.4031 71.5145 64.4031ZM70.2588 148.691C63.4572 148.691 58.4868 146.284 55.3476 141.47C52.3131 136.657 50.7958 130.274 50.7958 122.321C50.7958 117.613 51.3713 111.596 52.5223 104.271C53.778 96.8415 55.3476 89.9353 57.2311 83.5522C58.1729 80.2038 59.4286 77.9017 60.9982 76.646C62.5678 75.3903 65.0791 74.7625 68.5322 74.7625C73.8689 74.7625 76.5372 76.5414 76.5372 80.0991C76.5372 82.7151 75.5431 88.7842 73.555 98.3065C71.0436 109.817 69.7879 117.613 69.7879 121.694C69.7879 124.833 70.2065 127.239 71.0436 128.914C71.8807 130.588 73.2934 131.425 75.2815 131.425C77.165 131.425 79.5194 130.117 82.3447 127.501C85.17 124.885 88.9371 120.752 93.6459 115.101C94.9016 113.636 96.3142 112.904 97.8838 112.904C99.2441 112.904 100.291 113.532 101.023 114.787C101.86 116.043 102.279 117.77 102.279 119.967C102.279 124.153 101.285 127.396 99.2964 129.698C88.937 142.36 79.2579 148.691 70.2588 148.691Z" fill="#3395FF"/>
<path d="M100.724 148.691C96.7474 148.691 93.9222 146.598 92.2479 142.412C90.6783 138.227 89.8936 131.53 89.8936 122.321C89.8936 108.718 91.8294 95.7951 95.7011 83.5522C96.6428 80.5176 98.1601 78.3202 100.253 76.9599C102.45 75.4949 105.485 74.7625 109.357 74.7625C111.449 74.7625 112.914 75.024 113.751 75.5472C114.589 76.0704 115.007 77.0645 115.007 78.5295C115.007 80.2037 114.222 83.9708 112.653 89.8306C111.606 94.0162 110.769 97.6786 110.141 100.818C109.514 103.957 108.99 107.829 108.572 112.433C112.025 103.434 115.897 96.109 120.187 90.4584C124.477 84.8079 128.663 80.7792 132.744 78.3725C136.929 75.9658 140.749 74.7625 144.202 74.7625C151.003 74.7625 154.404 78.1632 154.404 84.9648C154.404 89.0458 153.253 96.4229 150.951 107.096C148.963 116.2 147.969 122.217 147.969 125.147C147.969 129.332 149.486 131.425 152.521 131.425C154.613 131.425 157.072 130.169 159.898 127.658C162.828 125.042 166.699 120.856 171.513 115.101C172.768 113.636 174.181 112.904 175.751 112.904C177.111 112.904 178.157 113.532 178.89 114.787C179.727 116.043 180.146 117.769 180.146 119.967C180.146 124.153 179.151 127.396 177.163 129.698C172.664 135.244 167.798 139.796 162.566 143.354C157.439 146.912 151.579 148.691 144.987 148.691C139.65 148.691 135.621 147.173 132.901 144.139C130.18 141 128.82 136.5 128.82 130.64C128.82 127.71 129.552 122.478 131.017 114.944C132.377 108.352 133.058 103.8 133.058 101.289C133.058 99.6144 132.482 98.7773 131.331 98.7773C129.971 98.7773 128.035 100.556 125.523 104.114C123.117 107.567 120.605 112.171 117.989 117.926C115.478 123.682 113.438 129.751 111.868 136.134C110.717 141.052 109.357 144.4 107.787 146.179C106.322 147.853 103.968 148.691 100.724 148.691Z" fill="#3395FF"/>
<path d="M258.169 112.904C259.53 112.904 260.576 113.532 261.309 114.787C262.146 116.043 262.564 117.769 262.564 119.967C262.564 124.153 261.57 127.396 259.582 129.698C254.873 135.454 250.112 140.058 245.299 143.511C240.485 146.964 234.782 148.691 228.19 148.691C220.133 148.691 213.645 146.389 208.727 141.784C203.809 137.18 201.35 131.059 201.35 123.42C201.35 119.339 203.443 116.409 207.628 114.63C212.232 112.642 215.529 110.549 217.517 108.352C219.505 106.05 220.499 103.277 220.499 100.033C220.499 98.1495 220.08 96.7368 219.243 95.7951C218.511 94.8533 217.569 94.3824 216.418 94.3824C213.593 94.3824 210.454 96.4229 207 100.504C203.652 104.585 200.513 109.869 197.583 116.357C194.653 122.74 192.351 129.332 190.677 136.134C189.526 141.052 188.165 144.4 186.596 146.179C185.131 147.853 182.776 148.691 179.532 148.691C176.289 148.691 173.882 147.54 172.312 145.237C170.847 142.831 169.853 139.168 169.33 134.25C168.807 129.332 168.545 122.112 168.545 112.59C168.545 96.4752 170.167 79.6805 173.411 62.2056C176.759 44.7308 181.625 30.0812 188.008 18.2568C194.496 6.32788 202.239 0.363403 211.238 0.363403C216.052 0.363403 219.923 2.4562 222.853 6.6418C225.888 10.7228 227.405 16.0594 227.405 22.6517C227.405 33.2204 224.318 44.2076 218.145 55.6133C211.971 66.9145 201.925 80.1514 188.008 95.3242C187.694 100.765 187.537 106.364 187.537 112.119C192.56 99.0389 198.315 89.569 204.803 83.7092C211.291 77.7447 217.36 74.7625 223.01 74.7625C228.242 74.7625 232.428 76.5413 235.567 80.0991C238.811 83.6568 240.433 88.0517 240.433 93.2837C240.433 99.0389 238.968 104.323 236.038 109.137C233.108 113.95 228.085 118.24 220.97 122.007C221.388 124.833 222.644 127.135 224.737 128.914C226.934 130.588 229.55 131.425 232.585 131.425C235.829 131.425 238.968 130.169 242.002 127.658C245.037 125.147 249.013 120.961 253.931 115.101C255.187 113.636 256.6 112.904 258.169 112.904ZM207.942 15.9024C206.059 15.9024 203.966 18.6231 201.664 24.0644C199.362 29.401 197.112 36.6735 194.914 45.8818C192.822 54.9855 191.095 64.9263 189.735 75.7042C196.222 68.0655 201.559 59.7466 205.745 50.7476C210.035 41.7485 212.18 33.5866 212.18 26.2618C212.18 22.9133 211.814 20.3496 211.081 18.5708C210.349 16.7919 209.302 15.9024 207.942 15.9024Z" fill="#3395FF"/>
<path d="M279.106 152.144C273.665 152.144 269.479 150.888 266.55 148.377C263.724 145.865 262.312 143.04 262.312 139.901C262.312 137.18 263.306 134.826 265.294 132.838C267.282 130.849 270.212 129.855 274.084 129.855C275.444 129.855 277.014 130.012 278.792 130.326C280.676 130.536 282.089 130.693 283.03 130.797C282.926 128.077 282.298 125.513 281.147 123.106C280.1 120.699 278.74 118.397 277.066 116.2C275.392 113.898 273.822 111.91 272.357 110.235C269.113 116.409 265.869 121.537 262.625 125.617C259.486 129.698 256.033 133.57 252.266 137.233C250.383 139.116 248.394 140.058 246.302 140.058C244.627 140.058 243.267 139.482 242.221 138.331C241.174 137.076 240.651 135.558 240.651 133.779C240.651 131.687 241.384 129.751 242.849 127.972L244.889 125.461C250.644 118.345 254.987 112.485 257.917 107.881C259.696 104.846 261.788 100.818 264.195 95.7951C266.602 90.6677 268.956 85.3834 271.258 79.9421C273.246 75.338 277.38 73.0359 283.658 73.0359C286.588 73.0359 288.629 73.2975 289.78 73.8207C290.931 74.3439 291.506 75.181 291.506 76.3321C291.506 76.9599 291.297 77.954 290.878 79.3143C290.46 80.6746 289.884 82.0349 289.152 83.3953C287.268 87.1623 286.326 90.3538 286.326 92.9698C286.326 94.5394 286.85 96.266 287.896 98.1495C289.047 100.033 290.774 102.387 293.076 105.213C296.424 109.608 298.936 113.375 300.61 116.514C302.389 119.548 303.278 122.897 303.278 126.559C303.278 127.606 303.173 129.071 302.964 130.954C308.092 128.966 314.108 123.682 321.015 115.101C322.27 113.636 323.683 112.904 325.253 112.904C326.613 112.904 327.659 113.532 328.392 114.787C329.229 116.043 329.647 117.769 329.647 119.967C329.647 123.943 328.653 127.187 326.665 129.698C321.433 136.186 316.41 140.633 311.597 143.04C306.888 145.342 301.028 146.598 294.017 146.807C289.832 150.365 284.861 152.144 279.106 152.144Z" fill="#3395FF"/>
<path d="M400.866 112.904C402.226 112.904 403.272 113.532 404.005 114.787C404.842 116.043 405.26 117.769 405.26 119.967C405.26 124.153 404.266 127.396 402.278 129.698C397.779 135.244 392.913 139.796 387.681 143.354C382.554 146.912 376.694 148.691 370.101 148.691C364.556 148.691 360.056 146.702 356.603 142.726C350.638 146.598 344.412 148.586 337.925 148.691C336.564 168.886 333.477 185.733 328.664 199.232C323.851 212.835 316.787 219.637 307.474 219.637C301.824 219.637 297.638 217.596 294.918 213.515C292.197 209.434 290.837 203.784 290.837 196.563C290.837 186.309 293.191 174.327 297.9 160.62C302.609 147.016 309.881 132.001 319.717 115.572C319.717 100.295 319.613 89.6736 319.403 83.7092C319.299 80.6746 320.502 78.2679 323.013 76.489C325.525 74.7101 328.664 73.8207 332.431 73.8207C334.629 73.8207 336.198 74.2916 337.14 75.2333C338.186 76.0704 338.762 77.797 338.866 80.413C338.866 83.029 338.919 84.9648 339.023 86.2205C342.372 82.0349 345.668 79.0527 348.912 77.2738C352.156 75.3903 355.609 74.4485 359.271 74.4485C365.131 74.4485 369.892 76.8029 373.555 81.5117C377.322 86.2205 379.205 92.3943 379.205 100.033C379.205 105.579 378.316 110.968 376.537 116.2C374.758 121.432 372.299 126.193 369.16 130.483C371.357 131.111 373.188 131.425 374.653 131.425C378.106 131.425 381.403 130.169 384.542 127.658C387.681 125.147 391.71 120.961 396.628 115.101C397.883 113.636 399.296 112.904 400.866 112.904ZM338.71 133.622C342.477 132.785 345.93 130.745 349.069 127.501C352.313 124.153 354.876 120.072 356.76 115.258C358.643 110.34 359.585 105.213 359.585 99.876C359.585 96.7368 358.957 94.3824 357.702 92.8128C356.446 91.1386 354.772 90.3015 352.679 90.3015C348.912 90.3015 344.36 94.2778 339.023 102.23C338.919 106.835 338.866 113.584 338.866 122.478C338.866 127.292 338.814 131.006 338.71 133.622ZM308.73 204.254C311.555 204.254 313.91 198.081 315.793 185.733C317.677 173.49 318.88 158.213 319.403 139.901C314.904 150.365 311.346 160.358 308.73 169.88C306.114 179.402 304.806 187.407 304.806 193.895C304.806 197.244 305.225 199.807 306.062 201.586C306.794 203.365 307.684 204.254 308.73 204.254Z" fill="#3395FF"/>
<path d="M403.607 148.691C399.631 148.691 396.806 146.598 395.132 142.412C393.562 138.227 392.777 131.53 392.777 122.321C392.777 108.718 394.713 95.7951 398.585 83.5522C399.526 80.5176 401.044 78.3202 403.137 76.9599C405.334 75.4949 408.369 74.7625 412.24 74.7625C414.333 74.7625 415.798 75.024 416.635 75.5472C417.472 76.0704 417.891 77.0645 417.891 78.5295C417.891 80.2037 417.106 83.9708 415.536 89.8306C414.49 94.0162 413.653 97.6786 413.025 100.818C412.397 103.957 411.874 107.829 411.456 112.433C414.909 103.434 418.78 96.109 423.071 90.4584C427.361 84.8079 431.546 80.7792 435.627 78.3725C439.813 75.9658 443.632 74.7625 447.085 74.7625C453.887 74.7625 457.288 78.1632 457.288 84.9648C457.288 86.3252 456.817 89.6213 455.875 94.8533C455.038 99.0389 454.619 101.655 454.619 102.701C454.619 106.364 455.927 108.195 458.543 108.195C461.473 108.195 465.24 105.893 469.845 101.289C471.205 99.9284 472.618 99.2482 474.082 99.2482C475.443 99.2482 476.489 99.876 477.222 101.132C478.059 102.283 478.477 103.852 478.477 105.841C478.477 109.712 477.431 112.747 475.338 114.944C472.408 117.979 468.955 120.595 464.979 122.792C461.107 124.885 456.974 125.931 452.579 125.931C447.033 125.931 442.795 124.519 439.865 121.693C437.04 118.868 435.627 115.049 435.627 110.235C435.627 108.666 435.784 107.096 436.098 105.527C436.307 103.434 436.412 102.021 436.412 101.289C436.412 99.6144 435.837 98.7773 434.685 98.7773C433.116 98.7773 431.023 100.556 428.407 104.114C425.896 107.567 423.384 112.171 420.873 117.926C418.362 123.682 416.321 129.751 414.752 136.134C413.601 141.052 412.24 144.4 410.671 146.179C409.206 147.853 406.851 148.691 403.607 148.691Z" fill="#3395FF"/>
<path d="M483.198 148.691C476.397 148.691 471.426 146.284 468.287 141.47C465.253 136.657 463.735 130.274 463.735 122.321C463.735 117.613 464.311 111.596 465.462 104.271C466.718 96.8415 468.287 89.9352 470.171 83.5522C471.113 80.2037 472.368 77.9016 473.938 76.646C475.507 75.3903 478.019 74.7625 481.472 74.7625C486.809 74.7625 489.477 76.5413 489.477 80.0991C489.477 82.7151 488.483 88.7842 486.495 98.3064C483.983 109.817 482.728 117.613 482.728 121.693C482.728 124.833 483.146 127.239 483.983 128.914C484.82 130.588 486.233 131.425 488.221 131.425C490.105 131.425 492.459 130.117 495.284 127.501C498.11 124.885 501.877 120.752 506.585 115.101C507.841 113.636 509.254 112.904 510.823 112.904C512.184 112.904 513.23 113.532 513.963 114.787C514.8 116.043 515.218 117.769 515.218 119.967C515.218 124.153 514.224 127.396 512.236 129.698C501.877 142.36 492.198 148.691 483.198 148.691Z" fill="#3395FF"/>
<path d="M472.452 61.4209C474.649 63.409 477.945 64.4031 482.34 64.4031C486.84 64.4031 490.45 63.1998 493.17 60.793C495.891 58.2817 497.251 54.9332 497.251 50.7476C497.251 47.2945 496.048 44.6262 493.641 42.7426C491.235 40.8591 488.095 39.9174 484.224 39.9174C479.933 39.9174 476.323 41.173 473.393 43.6844C470.568 46.0911 469.155 49.1257 469.155 52.7881C469.155 56.4505 470.254 59.3281 472.452 61.4209Z" fill="#3395FF"/>
<path d="M513.663 148.691C509.687 148.691 506.862 146.598 505.188 142.412C503.618 138.227 502.833 131.53 502.833 122.321C502.833 108.718 504.769 95.7951 508.641 83.5522C509.582 80.5176 511.1 78.3202 513.193 76.9599C515.39 75.4949 518.425 74.7625 522.296 74.7625C524.389 74.7625 525.854 75.024 526.691 75.5472C527.528 76.0704 527.947 77.0645 527.947 78.5295C527.947 80.2037 527.162 83.9708 525.592 89.8306C524.546 94.0162 523.709 97.6786 523.081 100.818C522.453 103.957 521.93 107.829 521.511 112.433C524.964 103.434 528.836 96.109 533.126 90.4584C537.417 84.8079 541.602 80.7792 545.683 78.3725C549.869 75.9658 553.688 74.7625 557.141 74.7625C563.943 74.7625 567.344 78.1632 567.344 84.9648C567.344 89.0458 566.193 96.4229 563.891 107.096C561.902 116.2 560.908 122.217 560.908 125.147C560.908 129.332 562.426 131.425 565.46 131.425C567.553 131.425 570.012 130.169 572.837 127.658C575.767 125.042 579.639 120.856 584.452 115.101C585.708 113.636 587.121 112.904 588.69 112.904C590.051 112.904 591.097 113.532 591.83 114.787C592.667 116.043 593.085 117.769 593.085 119.967C593.085 124.153 592.091 127.396 590.103 129.698C585.603 135.244 580.738 139.796 575.506 143.354C570.378 146.912 564.518 148.691 557.926 148.691C552.59 148.691 548.561 147.173 545.84 144.139C543.12 141 541.759 136.5 541.759 130.64C541.759 127.71 542.492 122.478 543.957 114.944C545.317 108.352 545.997 103.8 545.997 101.289C545.997 99.6144 545.422 98.7773 544.271 98.7773C542.91 98.7773 540.974 100.556 538.463 104.114C536.056 107.567 533.545 112.171 530.929 117.926C528.418 123.682 526.377 129.751 524.808 136.134C523.657 141.052 522.296 144.4 520.727 146.179C519.262 147.853 516.907 148.691 513.663 148.691Z" fill="#3395FF"/>
<path d="M660.75 113.218C662.11 113.218 663.156 113.898 663.889 115.258C664.726 116.514 665.145 118.136 665.145 120.124C665.145 122.531 664.778 124.414 664.046 125.774C663.313 127.135 662.162 128.338 660.593 129.384C651.594 135.454 645.001 139.953 640.816 142.883L630.77 149.632C626.794 171.293 621.562 188.297 615.074 200.644C608.691 213.096 600.529 219.323 590.588 219.323C585.252 219.323 580.909 217.648 577.561 214.3C574.212 211.056 572.538 206.766 572.538 201.429C572.538 194 575.468 185.995 581.328 177.414C587.188 168.938 598.175 158.474 614.289 146.022L615.231 139.901C613.452 142.726 611.098 144.924 608.168 146.493C605.343 147.958 602.517 148.691 599.692 148.691C593.205 148.691 588.025 146.336 584.153 141.627C580.282 136.919 578.346 130.745 578.346 123.106C578.346 114.735 580.282 106.835 584.153 99.4051C588.025 91.871 593.152 85.8542 599.535 81.3547C606.023 76.7506 612.877 74.4485 620.097 74.4485C622.399 74.4485 623.916 74.9194 624.649 75.8611C625.486 76.6982 626.166 78.2678 626.689 80.5699C628.677 80.1514 630.98 79.9421 633.596 79.9421C636.212 79.9421 638.043 80.3606 639.089 81.1978C640.24 81.9302 640.816 83.4475 640.816 85.7496C640.816 87.0053 640.763 87.9994 640.659 88.7318C640.24 91.9757 638.932 100.19 636.735 113.375C636.316 115.886 635.845 118.659 635.322 121.693C634.904 124.623 634.433 127.763 633.909 131.111C641.967 124.833 649.71 119.287 657.14 114.473C658.5 113.636 659.703 113.218 660.75 113.218ZM605.343 132.838C607.749 132.838 610.052 131.373 612.249 128.443C614.446 125.513 616.016 121.327 616.958 115.886L621.981 89.0458C617.69 89.1504 613.714 90.8246 610.052 94.0685C606.389 97.2077 603.459 101.393 601.262 106.625C599.064 111.857 597.966 117.403 597.966 123.263C597.966 126.507 598.593 128.914 599.849 130.483C601.209 132.053 603.041 132.838 605.343 132.838ZM592.315 204.097C594.931 204.097 597.861 200.958 601.105 194.68C604.453 188.401 607.645 178.408 610.679 164.7C602.622 171.607 596.815 177.833 593.257 183.379C589.699 188.925 587.92 193.79 587.92 197.976C587.92 199.755 588.234 201.22 588.862 202.371C589.594 203.522 590.745 204.097 592.315 204.097Z" fill="#3395FF"/>
</svg>

