<svg width="161" height="161" viewBox="0 0 161 161" fill="none" xmlns="http://www.w3.org/2000/svg">
<circle cx="80.0842" cy="80.0842" r="80" fill="url(#paint0_linear_8_127)"/>
<path fill-rule="evenodd" clip-rule="evenodd" d="M86.1261 46.2767C87.194 47.4953 89.1216 49.1866 92.1101 51.4919C93.5843 52.629 95.2517 53.8659 97.0458 55.1969C103.612 60.0675 111.874 66.1969 118.57 73.2995L121.644 76.5593L115.574 85.539L101.052 78.9648L110.997 86.946L104.335 96.3971L88.6805 89.4366L99.4575 98.0861L93.0498 107.566L74.8365 99.646C78.1143 102.207 81.3769 104.999 83.2347 107.852C84.284 109.463 85.3608 111.8 85.036 114.568C84.7175 117.283 83.1973 119.288 81.4651 120.671C73.6015 128.824 65.4086 133.2 57.5075 134.378C49.4737 135.575 42.2267 133.383 36.7124 129.288C26.143 121.438 21.0807 105.277 31.4411 93.7235C33.504 91.4228 37.0414 91.2302 39.342 93.2931C41.6426 95.356 41.8353 98.8934 39.7724 101.194C35.0789 106.428 36.4464 115.152 43.3844 120.304C46.6238 122.71 50.8999 124.049 55.8578 123.31C60.7283 122.584 66.7139 119.775 73.2048 113.115C72.1369 111.897 70.2093 110.206 67.2207 107.9C65.7466 106.763 64.0792 105.526 62.2851 104.195C55.7192 99.3247 47.4565 93.1953 40.7605 86.0927L37.6874 82.8329L43.7172 73.9121L60.6138 81.2593L48.0307 71.1602L53.8059 61.6841L71.3774 69.4969L59.4901 59.9563L65.2997 50.4956L82.8624 58.4465C80.1676 56.2523 77.6442 53.9178 76.0962 51.5407C75.0468 49.9292 73.9701 47.5921 74.2948 44.8242C74.6134 42.1095 76.1336 40.104 77.8658 38.7209C85.7267 30.571 93.9024 26.2101 101.785 25.0768C109.806 23.9237 117.012 26.1957 122.467 30.3642C132.914 38.3481 137.783 54.588 127.464 66.0962C125.401 68.3968 122.067 68.0596 119.766 65.9966C117.466 63.9337 117.07 60.9263 119.133 58.6256C123.867 53.3456 122.519 44.4878 115.672 39.2554C112.48 36.8157 108.269 35.4499 103.378 36.1531C98.5676 36.8446 92.6175 39.6167 86.1261 46.2767ZM74.009 114.223C74.009 114.223 74.0039 114.214 73.9969 114.195C74.0061 114.214 74.009 114.223 74.009 114.223ZM85.334 45.1967C85.3248 45.1779 85.3219 45.1689 85.3219 45.1689C85.3219 45.1689 85.327 45.1784 85.334 45.1967Z" fill="#E4EDF3"/>
<path d="M78.1769 62.8066L117.21 83.1188L115.574 85.539L100.506 78.7605L78.1769 62.8066Z" fill="#617DA8"/>
<path d="M55.9713 85.2735L95.3067 104.227L93.0498 107.566L75.108 99.7028L55.9713 85.2735Z" fill="#617DA8"/>
<path d="M37.6874 82.8329C41.3281 87.1806 55.4809 100.487 73.2048 113.115L74.4553 111.848L37.6874 82.8329Z" fill="#617DA8"/>
<path d="M66.9856 73.6394L106.202 93.748L104.335 96.3971L88.8221 89.5325L66.9856 73.6394Z" fill="#617DA8"/>
<defs>
<linearGradient id="paint0_linear_8_127" x1="80.0842" y1="0.0842285" x2="80.0842" y2="160.084" gradientUnits="userSpaceOnUse">
<stop stop-color="#3395FF"/>
<stop offset="1" stop-color="#3395FF"/>
</linearGradient>
</defs>
</svg>
