<svg width="161" height="161" viewBox="0 0 161 161" fill="none" xmlns="http://www.w3.org/2000/svg">
<circle cx="80.0842" cy="80.0843" r="80" transform="rotate(-0.0603668 80.0842 80.0843)" fill="#3395FF"/>
<path fill-rule="evenodd" clip-rule="evenodd" d="M75.425 45.8752C76.8181 46.7027 79.175 47.7131 82.731 48.9783C84.485 49.6024 86.4538 50.2614 88.5721 50.9705C96.3244 53.5657 106.08 56.8315 114.648 61.5083L118.581 63.6547L115.594 74.0737L99.7495 72.3254L111.678 76.8305L108.275 87.881L91.2339 86.1167L104.161 90.999L101.008 101.998L81.2371 100.115C85.1474 101.534 89.1147 103.176 91.7654 105.313C93.2626 106.519 95.0109 108.408 95.5602 111.14C96.099 113.819 95.2754 116.197 94.0573 118.049C89.1086 128.238 82.6762 134.939 75.5295 138.508C68.2628 142.137 60.6931 142.3 54.1809 140.116C41.6987 135.929 31.8757 122.134 38.1436 107.938C39.3917 105.111 42.695 103.831 45.5219 105.079C48.3487 106.327 49.6285 109.63 48.3805 112.457C45.541 118.889 49.5455 126.758 57.7391 129.506C61.5648 130.789 66.0452 130.737 70.5298 128.497C74.9352 126.297 79.755 121.77 83.8615 113.427C82.4685 112.599 80.1115 111.589 76.5555 110.324C74.8015 109.7 72.8328 109.041 70.7144 108.331C62.9621 105.736 53.2063 102.47 44.6382 97.7936L40.7059 95.6472L43.6731 85.2966L62.0149 87.0435L46.9208 81.343L49.4738 70.5434L68.6016 72.5237L54.3422 67.1384L56.9327 56.3428L76.095 58.4572C72.8527 57.2066 69.7298 55.7693 67.5212 53.9893C66.0239 52.7825 64.2756 50.8944 63.7263 48.1621C63.1876 45.4825 64.0111 43.1045 65.2292 41.2525C70.1762 31.0671 76.5971 24.3865 83.7404 20.8651C91.0085 17.2822 98.5638 17.2083 105.042 19.4803C117.45 23.832 127.114 37.7622 120.871 51.9026C119.623 54.7295 116.348 55.4425 113.521 54.1945C110.694 52.9464 109.386 50.2098 110.634 47.383C113.498 40.8953 109.47 32.8919 101.339 30.04C97.5471 28.7102 93.1204 28.7171 88.6882 30.902C84.3294 33.0507 79.5318 37.5309 75.425 45.8752ZM84.9696 114.231C84.9696 114.231 84.9618 114.223 84.9495 114.208C84.964 114.223 84.9696 114.231 84.9696 114.231ZM74.337 45.094C74.3225 45.0789 74.3169 45.0713 74.3169 45.0713C74.3169 45.0713 74.3247 45.0787 74.337 45.094Z" fill="#E4EDF3"/>
<path d="M72.992 64.0551L116.399 71.2656L115.594 74.0737L99.1666 72.3007L72.992 64.0551Z" fill="#617DA8"/>
<path d="M58.8457 92.2992L102.119 98.1241L101.008 101.998L81.5129 100.085L58.8457 92.2992Z" fill="#617DA8"/>
<path d="M40.7059 95.6472C45.5151 98.652 63.096 106.916 83.8615 113.427L84.6576 111.834L40.7059 95.6472Z" fill="#617DA8"/>
<path d="M65.7104 77.8237L109.229 84.7836L108.275 87.881L91.3983 86.164L65.7104 77.8237Z" fill="#617DA8"/>
</svg>
