<svg width="87" height="125" viewBox="0 0 87 125" fill="none" xmlns="http://www.w3.org/2000/svg">
<path fill-rule="evenodd" clip-rule="evenodd" d="M39.4607 28.8699C40.8529 29.6988 43.2088 30.7117 46.7634 31.9806C48.5168 32.6066 50.4848 33.2677 52.6024 33.979C60.352 36.5824 70.1044 39.8585 78.6675 44.5443L82.5975 46.6948L79.5998 57.1107L63.7573 55.3457L75.6814 59.8633L72.2667 70.9103L55.2272 69.128L68.1495 74.0239L64.9849 85.0196L45.2156 83.1158C49.1244 84.5387 53.09 86.1854 55.7384 88.3245C57.2344 89.5328 58.9807 91.4228 59.5271 94.1556C60.063 96.8359 59.237 99.213 58.017 101.064C53.0575 111.247 46.618 117.941 39.4676 121.503C32.197 125.124 24.6272 125.279 18.1173 123.088C5.63949 118.888 -4.16892 105.083 2.11394 90.893C3.36498 88.0675 6.66968 86.7912 9.49519 88.0422C12.3207 89.2932 13.5971 92.5979 12.346 95.4234C9.49973 101.852 13.4959 109.726 21.6867 112.482C25.511 113.769 29.9915 113.721 34.4784 111.486C38.8862 109.291 43.7108 104.769 47.826 96.4302C46.4338 95.6013 44.0779 94.5884 40.5233 93.3195C38.7699 92.6935 36.8019 92.0324 34.6843 91.3211C26.9347 88.7177 17.1824 85.4416 8.61922 80.7558L4.68916 78.6053L7.66724 68.2578L26.0073 70.024L10.9191 64.3076L13.4835 53.5107L32.6093 55.5111L18.3555 50.1109L20.9573 39.318L40.1174 41.4526C36.8764 40.1985 33.7551 38.758 31.5483 36.9756C30.0523 35.7673 28.306 33.8773 27.7596 31.1445C27.2237 28.4642 28.0497 26.0871 29.2697 24.2364C34.2275 14.0562 40.6554 7.38238 47.8025 3.86852C55.0743 0.293305 62.6297 0.227383 69.1056 2.50624C81.5089 6.87094 91.1579 20.8114 84.8999 34.9452C83.6489 37.7707 80.3736 38.4803 77.548 37.2293C74.7225 35.9782 73.4168 33.2403 74.6679 30.4148C77.5391 23.9301 73.5198 15.9224 65.3911 13.0619C61.6009 11.7282 57.1742 11.7304 52.7397 13.9106C48.3786 16.0548 43.5763 20.5299 39.4607 28.8699ZM48.9333 97.2353C48.9333 97.2353 48.9254 97.2278 48.9132 97.2126C48.9277 97.2277 48.9333 97.2353 48.9333 97.2353ZM38.3735 28.0875C38.359 28.0724 38.3534 28.0648 38.3534 28.0648C38.3534 28.0648 38.3613 28.0722 38.3735 28.0875Z" fill="#2FCB5A"/>
<path d="M37.0085 47.0472L80.4077 54.3034L79.5998 57.1107L63.1744 55.3203L37.0085 47.0472Z" fill="#71EE94"/>
<path d="M22.8325 75.2764L66.0995 81.1468L64.9849 85.0196L45.4914 83.0859L22.8325 75.2764Z" fill="#71EE94"/>
<path d="M4.68916 78.6053C9.49519 81.6152 27.0674 89.8973 47.826 96.4302L48.6238 94.8387L4.68916 78.6053Z" fill="#71EE94"/>
<path d="M29.7125 60.8081L73.2238 67.8138L72.2667 70.9103L55.3915 69.1755L29.7125 60.8081Z" fill="#71EE94"/>
</svg>
