<!--?xml version="1.0" encoding="UTF-8" standalone="no"?-->
<svg xmlns="http://www.w3.org/2000/svg" id="svg235201" viewBox="0 0 1024 768" height="768px" width="1024px" version="1.1">
  <g id="logo-group">
      <g id="title" style="font-style:normal;font-weight:normal;font-size:72px;line-height:1;font-family:Pacifico;font-variant-ligatures:none;text-align:center;text-anchor:middle" transform="translate(0 0)">
        <path id="path235210" style="font-style:normal;font-weight:normal;font-size:72px;line-height:1;font-family:Pacifico;font-variant-ligatures:none;text-align:center;text-anchor:middle" d="m 392.34556,-16.056 q 0.936,0 1.44,0.864 0.576,0.864 0.576,2.376 0,2.88 -1.368,4.464 -3.096,3.816 -6.768,6.264 -3.6,2.448 -8.208,2.448 -6.336,0 -9.432,-5.76 -3.024,-5.76 -3.024,-14.904 0,-8.784 2.232,-20.016 2.304,-11.232 6.696,-19.296 4.464,-8.064 10.584,-8.064 3.456,0 5.4,3.24 2.016,3.168 2.016,9.144 0,8.568 -4.752,19.872 -4.752,11.304 -12.888,22.392 0.504,2.952 1.656,4.248 1.152,1.224 3.024,1.224 2.952,0 5.184,-1.656 2.232,-1.728 5.688,-5.832 0.864,-1.008 1.944,-1.008 z m -8.856,-44.496 q -1.656,0 -3.744,5.976 -2.088,5.976 -3.672,14.832 -1.584,8.856 -1.728,16.992 5.112,-8.424 8.136,-16.848 3.024,-8.496 3.024,-15.48 0,-5.472 -2.016,-5.472 z" stroke-width="0" stroke-linejoin="miter" stroke-miterlimit="2" fill="#2FCB5A" stroke="#2FCB5A" transform="translate(0 304.22583999999995) translate(179.85547249999996 -29.862400000000008) scale(2.18) translate(-365.56156 67.68)"></path>
        <path id="path235212" style="font-style:normal;font-weight:normal;font-size:72px;line-height:1;font-family:Pacifico;font-variant-ligatures:none;text-align:center;text-anchor:middle" d="m 397.97394,-38.304 q -3.024,0 -4.536,-1.368 -1.512,-1.44 -1.512,-3.96 0,-2.52 1.944,-4.176 2.016,-1.728 4.968,-1.728 2.664,0 4.32,1.296 1.656,1.296 1.656,3.672 0,2.88 -1.872,4.608 -1.872,1.656 -4.968,1.656 z m -0.576,38.664 q -4.68,0 -6.84,-3.312 -2.088,-3.312 -2.088,-8.784 0,-3.24 0.792,-8.28 0.864,-5.112 2.16,-9.504 0.648,-2.304 1.728,-3.168 1.08,-0.864 3.456,-0.864 3.672,0 3.672,2.448 0,1.8 -1.368,8.352 -1.728,7.92 -1.728,10.728 0,2.16 0.576,3.312 0.576,1.152 1.944,1.152 1.296,0 3.24,-1.8 1.944,-1.8 5.184,-5.688 0.864,-1.008 1.944,-1.008 0.936,0 1.44,0.864 0.576,0.864 0.576,2.376 0,2.88 -1.368,4.464 -7.128,8.712 -13.32,8.712 z" stroke-width="0" stroke-linejoin="miter" stroke-miterlimit="2" fill="#2FCB5A" stroke="#2FCB5A" transform="translate(0 304.22583999999995) translate(229.79574089999997 9.691519999999997) scale(2.18) translate(-388.46994 49.536)"></path>
        <path id="path235214" style="font-style:normal;font-weight:normal;font-size:72px;line-height:1;font-family:Pacifico;font-variant-ligatures:none;text-align:center;text-anchor:middle" d="m 411.37269,0.36 q -2.736,0 -3.888,-2.88 -1.08,-2.88 -1.08,-9.216 0,-9.36 2.664,-17.784 0.648,-2.088 2.088,-3.024 1.512,-1.008 4.176,-1.008 1.44,0 2.016,0.36 0.576,0.36 0.576,1.368 0,1.152 -1.08,5.184 -0.72,2.88 -1.152,5.04 -0.432,2.16 -0.72,5.328 2.376,-6.192 5.328,-10.08 2.952,-3.888 5.76,-5.544 2.88,-1.656 5.256,-1.656 4.68,0 4.68,4.68 0,2.808 -1.584,10.152 -1.368,6.264 -1.368,8.28 0,2.88 2.088,2.88 1.44,0 3.384,-1.728 2.016,-1.8 5.328,-5.76 0.864,-1.008 1.944,-1.008 0.936,0 1.44,0.864 0.576,0.864 0.576,2.376 0,2.88 -1.368,4.464 -3.096,3.816 -6.696,6.264 -3.528,2.448 -8.064,2.448 -3.672,0 -5.544,-2.088 -1.872,-2.16 -1.872,-6.192 0,-2.016 1.008,-7.2 0.936,-4.536 0.936,-6.264 0,-1.152 -0.792,-1.152 -0.936,0 -2.664,2.448 -1.656,2.376 -3.456,6.336 -1.728,3.96 -2.808,8.352 -0.792,3.384 -1.872,4.608 -1.008,1.152 -3.24,1.152 z" stroke-width="0" stroke-linejoin="miter" stroke-miterlimit="2" fill="#2FCB5A" stroke="#2FCB5A" transform="translate(0 304.22583999999995) translate(268.8934959 44.536640000000006) scale(2.18) translate(-406.40469 33.552)"></path>
        <path id="path235216" style="font-style:normal;font-weight:normal;font-size:72px;line-height:1;font-family:Pacifico;font-variant-ligatures:none;text-align:center;text-anchor:middle" d="m 483.59544,-16.056 q 0.936,0 1.44,0.864 0.576,0.864 0.576,2.376 0,2.88 -1.368,4.464 -3.24,3.96 -6.552,6.336 -3.312,2.376 -7.848,2.376 -5.544,0 -8.928,-3.168 -3.384,-3.168 -3.384,-8.424 0,-2.808 2.88,-4.032 3.168,-1.368 4.536,-2.88 1.368,-1.584 1.368,-3.816 0,-1.296 -0.576,-1.944 -0.504,-0.648 -1.296,-0.648 -1.944,0 -4.32,2.808 -2.304,2.808 -4.32,7.272 -2.016,4.392 -3.168,9.072 -0.792,3.384 -1.872,4.608 -1.008,1.152 -3.24,1.152 -2.232,0 -3.312,-1.584 -1.008,-1.656 -1.368,-5.04 -0.36,-3.384 -0.36,-9.936 0,-11.088 2.232,-23.112 2.304,-12.024 6.696,-20.16 4.464,-8.208 10.656,-8.208 3.312,0 5.328,2.88 2.088,2.808 2.088,7.344 0,7.272 -4.248,15.12 -4.248,7.776 -13.824,18.216 -0.216,3.744 -0.216,7.704 3.456,-9 7.92,-13.032 4.464,-4.104 8.352,-4.104 3.6,0 5.76,2.448 2.232,2.448 2.232,6.048 0,3.96 -2.016,7.272 -2.016,3.312 -6.912,5.904 0.288,1.944 1.728,3.168 1.512,1.152 3.6,1.152 2.232,0 4.32,-1.728 2.088,-1.728 5.472,-5.76 0.864,-1.008 1.944,-1.008 z m -23.04,-44.496 q -1.296,0 -2.88,3.744 -1.584,3.672 -3.096,10.008 -1.44,6.264 -2.376,13.68 4.464,-5.256 7.344,-11.448 2.952,-6.192 2.952,-11.232 0,-2.304 -0.504,-3.528 -0.504,-1.224 -1.44,-1.224 z" stroke-width="0" stroke-linejoin="miter" stroke-miterlimit="2" fill="#2FCB5A" stroke="#2FCB5A" transform="translate(0 304.22583999999995) translate(347.54517089999996 -29.862400000000008) scale(2.18) translate(-442.48344 67.68)"></path>
              <path id="path235218" style="font-style:normal;font-weight:normal;font-size:72px;line-height:1;font-family:Pacifico;font-variant-ligatures:none;text-align:center;text-anchor:middle" d="m 493.19956,1.944 q -3.744,0 -5.76,-1.728 -1.944,-1.728 -1.944,-3.888 0,-1.872 1.368,-3.24 1.368,-1.368 4.032,-1.368 0.936,0 2.16,0.216 1.296,0.144 1.944,0.216 -0.072,-1.872 -0.864,-3.528 -0.72,-1.656 -1.872,-3.168 -1.152,-1.584 -2.16,-2.736 -2.232,4.248 -4.464,7.056 -2.16,2.808 -4.752,5.328 -1.296,1.296 -2.736,1.296 -1.152,0 -1.872,-0.792 -0.72,-0.864 -0.72,-2.088 0,-1.44 1.008,-2.664 l 0.936,-1.152 q 3.96,-4.896 5.976,-8.064 1.224,-2.088 2.88,-5.544 1.656,-3.528 3.24,-7.272 1.368,-3.168 5.688,-3.168 2.016,0 2.808,0.36 0.792,0.36 0.792,1.152 0,0.432 -0.288,1.368 -0.288,0.936 -0.792,1.872 -1.296,2.592 -1.296,4.392 0,1.08 0.72,2.376 0.792,1.296 2.376,3.24 2.304,3.024 3.456,5.184 1.224,2.088 1.224,4.608 0,0.72 -0.144,2.016 3.528,-1.368 8.28,-7.272 0.864,-1.008 1.944,-1.008 0.936,0 1.44,0.864 0.576,0.864 0.576,2.376 0,2.736 -1.368,4.464 -3.6,4.464 -6.912,6.12 -3.24,1.584 -8.064,1.728 -2.88,2.448 -6.84,2.448 z" stroke-width="0" stroke-linejoin="miter" stroke-miterlimit="2" fill="#2FCB5A" stroke="#2FCB5A" transform="translate(0 304.22583999999995) translate(419.6511125 42.81008) scale(2.18) translate(-475.55956 34.344)"></path>
        <path id="path235220" style="font-style:normal;font-weight:normal;font-size:72px;line-height:1;font-family:Pacifico;font-variant-ligatures:none;text-align:center;text-anchor:middle" d="m 549.05244,-16.056 q 0.936,0 1.44,0.864 0.576,0.864 0.576,2.376 0,2.88 -1.368,4.464 -3.096,3.816 -6.696,6.264 -3.528,2.448 -8.064,2.448 -3.816,0 -6.192,-2.736 -4.104,2.664 -8.568,2.736 -0.936,13.896 -4.248,23.184 -3.312,9.36 -9.72,9.36 -3.888,0 -5.76,-2.808 -1.872,-2.808 -1.872,-7.776 0,-7.056 3.24,-16.488 3.24,-9.36 10.008,-20.664 0,-10.512 -0.144,-14.616 -0.072,-2.088 1.656,-3.312 1.728,-1.224 4.32,-1.224 1.512,0 2.16,0.648 0.72,0.576 0.792,2.376 0,1.8 0.072,2.664 2.304,-2.88 4.536,-4.104 2.232,-1.296 4.752,-1.296 4.032,0 6.552,3.24 2.592,3.24 2.592,8.496 0,3.816 -1.224,7.416 -1.224,3.6 -3.384,6.552 1.512,0.432 2.52,0.432 2.376,0 4.536,-1.728 2.16,-1.728 5.544,-5.76 0.864,-1.008 1.944,-1.008 z m -28.512,9.504 q 2.592,-0.576 4.752,-2.808 2.232,-2.304 3.528,-5.616 1.296,-3.384 1.296,-7.056 0,-2.16 -0.864,-3.24 -0.864,-1.152 -2.304,-1.152 -2.592,0 -6.264,5.472 -0.072,3.168 -0.072,9.288 0,3.312 -0.072,5.112 z m -13.752,32.4 q 1.944,0 3.24,-8.496 1.296,-8.424 1.656,-21.024 -3.096,7.2 -4.896,13.752 -1.8,6.552 -1.8,11.016 0,2.304 0.576,3.528 0.504,1.224 1.224,1.224 z" stroke-width="0" stroke-linejoin="miter" stroke-miterlimit="2" fill="#2FCB5A" stroke="#2FCB5A" transform="translate(0 304.22583999999995) translate(469.8366309000001 43.59488) scale(2.18) translate(-498.58044 33.984)"></path>
        <path id="path235222" style="font-style:normal;font-weight:normal;font-size:72px;line-height:1;font-family:Pacifico;font-variant-ligatures:none;text-align:center;text-anchor:middle" d="m 550.31019,0.36 q -2.736,0 -3.888,-2.88 -1.08,-2.88 -1.08,-9.216 0,-9.36 2.664,-17.784 0.648,-2.088 2.088,-3.024 1.512,-1.008 4.176,-1.008 1.44,0 2.016,0.36 0.576,0.36 0.576,1.368 0,1.152 -1.08,5.184 -0.72,2.88 -1.152,5.04 -0.432,2.16 -0.72,5.328 2.376,-6.192 5.328,-10.08 2.952,-3.888 5.76,-5.544 2.88,-1.656 5.256,-1.656 4.68,0 4.68,4.68 0,0.936 -0.648,4.536 -0.576,2.88 -0.576,3.6 0,2.52 1.8,2.52 2.016,0 5.184,-3.168 0.936,-0.936 1.944,-0.936 0.936,0 1.44,0.864 0.576,0.792 0.576,2.16 0,2.664 -1.44,4.176 -2.016,2.088 -4.752,3.6 -2.664,1.44 -5.688,1.44 -3.816,0 -5.832,-1.944 -1.944,-1.944 -1.944,-5.256 0,-1.08 0.216,-2.16 0.144,-1.44 0.144,-1.944 0,-1.152 -0.792,-1.152 -1.08,0 -2.88,2.448 -1.728,2.376 -3.456,6.336 -1.728,3.96 -2.808,8.352 -0.792,3.384 -1.872,4.608 -1.008,1.152 -3.24,1.152 z" stroke-width="0" stroke-linejoin="miter" stroke-miterlimit="2" fill="#2FCB5A" stroke="#2FCB5A" transform="translate(0 304.22583999999995) translate(571.7772459 44.536640000000006) scale(2.18) translate(-545.34219 33.552)"></path>
        <path id="path235224" style="font-style:normal;font-weight:normal;font-size:72px;line-height:1;font-family:Pacifico;font-variant-ligatures:none;text-align:center;text-anchor:middle" d="m 587.39581,-38.304 q -3.024,0 -4.536,-1.368 -1.512,-1.44 -1.512,-3.96 0,-2.52 1.944,-4.176 2.016,-1.728 4.968,-1.728 2.664,0 4.32,1.296 1.656,1.296 1.656,3.672 0,2.88 -1.872,4.608 -1.872,1.656 -4.968,1.656 z m -0.576,38.664 q -4.68,0 -6.84,-3.312 -2.088,-3.312 -2.088,-8.784 0,-3.24 0.792,-8.28 0.864,-5.112 2.16,-9.504 0.648,-2.304 1.728,-3.168 1.08,-0.864 3.456,-0.864 3.672,0 3.672,2.448 0,1.8 -1.368,8.352 -1.728,7.92 -1.728,10.728 0,2.16 0.576,3.312 0.576,1.152 1.944,1.152 1.296,0 3.24,-1.8 1.944,-1.8 5.184,-5.688 0.864,-1.008 1.944,-1.008 0.936,0 1.44,0.864 0.576,0.864 0.576,2.376 0,2.88 -1.368,4.464 -7.128,8.712 -13.32,8.712 z" stroke-width="0" stroke-linejoin="miter" stroke-miterlimit="2" fill="#2FCB5A" stroke="#2FCB5A" transform="translate(0 304.22583999999995) translate(642.7354175 9.691519999999997) scale(2.18) translate(-577.89181 49.536)"></path>
        <path id="path235226" style="font-style:normal;font-weight:normal;font-size:72px;line-height:1;font-family:Pacifico;font-variant-ligatures:none;text-align:center;text-anchor:middle" d="m 600.79456,0.36 q -2.736,0 -3.888,-2.88 -1.08,-2.88 -1.08,-9.216 0,-9.36 2.664,-17.784 0.648,-2.088 2.088,-3.024 1.512,-1.008 4.176,-1.008 1.44,0 2.016,0.36 0.576,0.36 0.576,1.368 0,1.152 -1.08,5.184 -0.72,2.88 -1.152,5.04 -0.432,2.16 -0.72,5.328 2.376,-6.192 5.328,-10.08 2.952,-3.888 5.76,-5.544 2.88,-1.656 5.256,-1.656 4.68,0 4.68,4.68 0,2.808 -1.584,10.152 -1.368,6.264 -1.368,8.28 0,2.88 2.088,2.88 1.44,0 3.384,-1.728 2.016,-1.8 5.328,-5.76 0.864,-1.008 1.944,-1.008 0.936,0 1.44,0.864 0.576,0.864 0.576,2.376 0,2.88 -1.368,4.464 -3.096,3.816 -6.696,6.264 -3.528,2.448 -8.064,2.448 -3.672,0 -5.544,-2.088 -1.872,-2.16 -1.872,-6.192 0,-2.016 1.008,-7.2 0.936,-4.536 0.936,-6.264 0,-1.152 -0.792,-1.152 -0.936,0 -2.664,2.448 -1.656,2.376 -3.456,6.336 -1.728,3.96 -2.808,8.352 -0.792,3.384 -1.872,4.608 -1.008,1.152 -3.24,1.152 z" stroke-width="0" stroke-linejoin="miter" stroke-miterlimit="2" fill="#2FCB5A" stroke="#2FCB5A" transform="translate(0 304.22583999999995) translate(681.8331725000002 44.536640000000006) scale(2.18) translate(-595.82656 33.552)"></path>
        <path id="path235228" style="font-style:normal;font-weight:normal;font-size:72px;line-height:1;font-family:Pacifico;font-variant-ligatures:none;text-align:center;text-anchor:middle" d="m 668.26531,-15.912 q 0.936,0 1.44,0.936 0.576,0.864 0.576,2.232 0,1.656 -0.504,2.592 -0.504,0.936 -1.584,1.656 -6.192,4.176 -9.072,6.192 l -4.608,3.096 q -2.736,14.904 -7.2,23.4 -4.392,8.568 -11.232,8.568 -3.672,0 -5.976,-2.304 -2.304,-2.232 -2.304,-5.904 0,-5.112 4.032,-11.016 4.032,-5.832 15.12,-14.4 l 0.432,-2.808 q -1.224,1.944 -3.24,3.024 -1.944,1.008 -3.888,1.008 -4.464,0 -7.128,-3.24 -2.664,-3.24 -2.664,-8.496 0,-5.76 2.664,-10.872 2.664,-5.184 7.056,-8.28 4.464,-3.168 9.432,-3.168 1.584,0 2.088,0.648 0.576,0.576 0.936,2.16 1.368,-0.288 3.168,-0.288 1.8,0 2.52,0.576 0.792,0.504 0.792,2.088 0,0.864 -0.072,1.368 -0.288,2.232 -1.8,11.304 -0.288,1.728 -0.648,3.816 -0.288,2.016 -0.648,4.32 5.544,-4.32 10.656,-7.632 0.936,-0.576 1.656,-0.576 z m -25.416,9 q 1.656,0 3.168,-2.016 1.512,-2.016 2.16,-5.76 l 2.304,-12.312 q -2.952,0.072 -5.472,2.304 -2.52,2.16 -4.032,5.76 -1.512,3.6 -1.512,7.632 0,2.232 0.864,3.312 0.936,1.08 2.52,1.08 z m -5.976,32.688 q 1.8,0 4.032,-4.32 2.304,-4.32 4.392,-13.752 -5.544,4.752 -7.992,8.568 -2.448,3.816 -2.448,6.696 0,1.224 0.432,2.016 0.504,0.792 1.584,0.792 z" stroke-width="0" stroke-linejoin="miter" stroke-miterlimit="2" fill="#2FCB5A" stroke="#2FCB5A" transform="translate(0 304.22583999999995) translate(751.5381275000002 44.22272000000001) scale(2.18) translate(-627.80131 33.696)"></path>

              </g>
  </g>
</svg>
